<svg xmlns="http://www.w3.org/2000/svg"><symbol id="micropachycephalosaurus" viewBox="0 0 256 256"><path d="M133 150.7c-.3 0-.4.2-.4.6h-.1c-.3 0-.5.1-.5.5a.5.5 0 0 0 .5.5c.3 0 .4-.2.4-.5 0 .1 0 .1.1.1a.5.5 0 0 0 .5-.5c0-.5-.2-.7-.5-.7zm1.4-.8a2 2 0 0 0-.8.8h.3a1.9 1.9 0 0 0 1.1-.4 1.8 1.8 0 0 0 .8-.7h-.3a2.3 2.3 0 0 0-1.1.3zm3-2.5c-.2 0-.4.1-.4.5h-.1c-.3 0-.4.2-.4.5h-.2c-.3 0-.4.2-.4.6s.1.6.4.6.5-.2.5-.6h.1c.3 0 .4-.2.4-.6h.1c.4 0 .5-.1.5-.5s-.1-.5-.5-.5zm23-5.9l-1.3 1.4a1.4 1.4 0 0 0 .8 1 2 2 0 0 0 1.1.2 2.3 2.3 0 0 0 1.4-.4 6.9 6.9 0 0 0 1.1-1.3 6.1 6.1 0 0 0 .7-1.4c.2-.5.4-1.2.5-1.2h-3.4c-.2 0-.5 1.1-.9 1.7z"/><path d="M128.5 2.3A125.5 125.5 0 1 0 254 127.8 125.5 125.5 0 0 0 128.5 2.3zm94.1 74.5l-1.5.4h-3.7l-5.1 1.2a17.5 17.5 0 0 0-3.6 1.6 8.8 8.8 0 0 0-2.5 2.2 13.1 13.1 0 0 0-1.7 2.9c-.5 1.1-1 2.4-1.5 3.8l-1.6 5-1.2 3.4a28.8 28.8 0 0 1-1.3 3.1 29.2 29.2 0 0 1-1.4 3.1c-.5 1.1-1.1 2.1-1.7 3.2a30.7 30.7 0 0 1-2.6 4c-1 1.3-1.9 2.5-3 3.7l-3 3.5a39.3 39.3 0 0 0-3.1 3.8 9.4 9.4 0 0 0-1.4 2.6l-.9 2.5a9.8 9.8 0 0 1-1.3 2.2 5.7 5.7 0 0 1-2.5 1.6l-1.3.5-2 .7-2 .6-1.4.4a3 3 0 0 1 .2 2 2 2 0 0 1-.9.9l-1.2.6a1.4 1.4 0 0 0-.8.9l-2.3 6.7a2.5 2.5 0 0 1-1 1.5 5.3 5.3 0 0 1-1.7.8 13.6 13.6 0 0 1-2 .2 11.5 11.5 0 0 1-1.9-.1h-1.9c-.3-.1-.4-.3-.4-.8s0-.3.1-.4l.2-.3.3-.2v-.4a.1.1 0 0 0-.1-.1v-.1a26 26 0 0 0-3.4 1.6l-3.3 2.1-3.3 2.1-3.3 2-.9.4-1.1.6-1 .7a1.5 1.5 0 0 0-.4 1.1v.5l1.8 1.6 1.9 1.7 2 1.6a11.3 11.3 0 0 0 2.1 1.2 6.7 6.7 0 0 0 1.8.7l1.9.5 1.9.7a5.1 5.1 0 0 1 1.6.9 9.3 9.3 0 0 1 1.4 1.4l1.1 1.5a13.4 13.4 0 0 0 1.1 1.4 8.6 8.6 0 0 0 1.4 1.3l1.7.6a6.6 6.6 0 0 1 2 .6 5.2 5.2 0 0 1 1.8 1 2.1 2.1 0 0 1 .8 1.7.4.4 0 0 0-.1.3v.2l-5.5 1.1-1.1.4a2 2 0 0 1-1.1.3h-.6l-1.1-.6-1.7-1-1.7-1a3.1 3.1 0 0 1-1-.8c-.1 0-.1 0-.2-.2l-.3-.5-.4-.5c-.1-.2-.2-.3-.2-.4l-2.3-4.5-1.1-.4-1.8-.8-2.1-.9-2.1-.9-1.8-.9-1.1-.5-2.7-1.6a17.1 17.1 0 0 1-2.6-2.1 13.5 13.5 0 0 1-2-2.7 8.1 8.1 0 0 1-1-3.1l-.6.3-.5.3-.9.6-1.7 1.2-2.1 1.4-2.1 1.3-1.7 1.1-.9.5-6 3.5a19.1 19.1 0 0 0-4.4 3.4 15.4 15.4 0 0 0-3.6 4.4c-.9 1.7-.7 3.8-2.4 6.5v.2c0 .1.1.3 0 .4v1a8.4 8.4 0 0 0 1.2 4.3 6.9 6.9 0 0 0 2.1 2.6 8.2 8.2 0 0 0 2.6 1.4l2.5.9a6.7 6.7 0 0 1 1.9 1 4 4 0 0 1 .8 2H103l-.2-.4c-.1-.2-.2-.1-.4-.2l-.4-.2-.6-.3a2.8 2.8 0 0 1-1.3-1.5 12.9 12.9 0 0 1-.5-2.1c0-.8.2-1.6.2-2.3a21.1 21.1 0 0 0 .3-2.1v-1.4a7.5 7.5 0 0 1 .3-1.7c.2-.8.3-1.7.6-2.7s.4-2 .7-3.1.6-2.1.8-3.1.5-1.9.7-2.7.3-1.3.4-1.7l.6-2 1-1.9a13.9 13.9 0 0 0 4.5-2.5l3.2-3.2 2.8-3.4a16.7 16.7 0 0 1 3.4-3.1l1.5-.7 2-.8 2.3-.9a10.3 10.3 0 0 0 2.1-1.1l1.6-1.3a2.5 2.5 0 0 0 .6-1.6c0-.4-.1-.9-.1-1.3a1.7 1.7 0 0 0-.6-1.2l-.7-.2-1.2-.6-1.2-.5-.7-.4a10.8 10.8 0 0 1-2.1-1.1 24.8 24.8 0 0 0-2.6-1.9c-.9-.7-1.7-1-2.5-1.6a3.7 3.7 0 0 0-1.7-.5H108c-5.9 0-11.7-.1-17.4.1s-11.6.2-17.5.2c-4.3 0-8.5-.2-12.7-.4s-8.2-.7-12.2-1.3a98.3 98.3 0 0 1-11.9-3 72.5 72.5 0 0 1-11.6-5l-1.4-.7-1.6-1a8 8 0 0 1-1.3-1.3 3 3 0 0 1-.5-1.5l2.1.3 2.4 1 2.1.9 1.5.7 4.6 1.6 5 1.4a45.9 45.9 0 0 0 5.1 1l4.8.3h26.2l2.5-.3 3.3-.5 3.6-.6 3.4-.6 2.6-.6 6.8-1.3 7.3-1.6 7.2-2.1a42.4 42.4 0 0 0 6.5-2.8l3.8-1.7 3.7-1.6 3.9-1.3a25.9 25.9 0 0 1 4.2-.9h2.7l1.8-.2 1-.2 1.9-.3 3.3-.7 4-.9 4-.9c1.2-.3 2.3-.9 3.3-1.1s1.5-.7 1.8-.7h6.5a64.6 64.6 0 0 1 7.8.7c2.6.2 5.2.5 7.8.5a10.1 10.1 0 0 0 5-1.3 17.4 17.4 0 0 0 4.4-3.4 38.1 38.1 0 0 0 3.9-4.9c1.1-1.9 2.2-3.7 3.2-5.6s1.8-3.7 2.5-5.5 1.3-3.4 1.7-4.8.8-2.3 1.2-3.4l.9-3.1 1.2-2.6a8.1 8.1 0 0 1 1.8-1.9 6.8 6.8 0 0 1 2.6-1.6 12 12 0 0 1 3.7-.8h3c.8 1.6 1.8.9 3 1.3a36.8 36.8 0 0 1 3.5 1.5 16 16 0 0 1 2.9 1.8 2.8 2.8 0 0 1 1.3 2.2 2.4 2.4 0 0 1-.5 1.4 3.1 3.1 0 0 1-1.1.5z"/></symbol><symbol id="brachiocaurus" viewBox="0 0 256 256"><path d="M59.8 166a31 31 0 0 0-7.6.9h-.1c0 .3.3.6.8 1a12.3 12.3 0 0 0 2 1l2.6 1 2.8.8 2.3.6 1.5.2h2.1a10.9 10.9 0 0 0 2.5-.4l2.3-.8a4.2 4.2 0 0 0 1.7-1.5 27.7 27.7 0 0 0-6.3-2.2 37 37 0 0 0-6.6-.6z"/><path d="M127.8 2a125.5 125.5 0 1 0 125.5 125.5A125.5 125.5 0 0 0 127.8 2zm81.9 69.2v.4a7.8 7.8 0 0 1-.1 1.3l-.3 2.1c-.2.7-.2 1.4-.4 2.1s-.2 1.1-.2 1.3a7.6 7.6 0 0 0-.9 1.8l-.6 1.9-.6 2a10.7 10.7 0 0 1-.7 1.9l-1.7 3.1a21.1 21.1 0 0 0-1.6 3l-19.7 27.3a.8.8 0 0 1-.2.6l-.3.3-.3.2-.4.5-1.6 2.3-2 2.8a36.2 36.2 0 0 0-2.2 3.2c-.7 1.1-1.4 2.2-1.9 3.2a18.8 18.8 0 0 0-1.4 2.9 6 6 0 0 0-.5 2.3c0 .3-.3.6-.3.8a1.4 1.4 0 0 1 .2.6c-.1 0-.2.1-.2.3s.1.4.2.4V150a4.4 4.4 0 0 1-.2 1c-.2.3-.2.7-.4 1.1a6.7 6.7 0 0 1-.6 1.2c-.1.4-.4.8-.4 1.1v1.7a.5.5 0 0 1 0 .4c-.2.2-.2.5-.4.8s-.6.5-.7.8l-.5.4v.4s.7.2.7.4.9.3.9.4v2.8a20.2 20.2 0 0 1-.6 3.4c-.2 1.2-.6 2.4-.8 3.5l-.6 3.5a19.5 19.5 0 0 0-.3 3.4c0 2.1 0 4.2.2 6.3a57.8 57.8 0 0 0 1.1 6 27.8 27.8 0 0 0 2.1 5.7 24.5 24.5 0 0 0 3.4 5.2l-1.3.8-1.6.7-1.7.4h-1.9l-1-.2-1.2-.3-1-.2-.7-.2-.7-.2c-.3-.2-.5-.3-.6-.5a1.6 1.6 0 0 1-.4-.7 26.8 26.8 0 0 0 .2-4l-.3-4.2c-.2-1.4-.4-2.9-.5-4.3l-.6-4-.2-.6a.8.8 0 0 0-.2-.6c.1-1.1.1-2.3.1-3.6s0-2.6-.1-4a26.3 26.3 0 0 0-.6-3.9 11.6 11.6 0 0 0-1.4-3.4 3.7 3.7 0 0 0-1.4 1.8 17.3 17.3 0 0 0-.8 2.7c-.2.9-.2 1.9-.4 2.8a20.3 20.3 0 0 0-.9 2.3v7.5c0 2.8-.2 5.5-.1 8.2s.2 5.3.5 8.1l.4.3.8.6.8.7a.7.7 0 0 1 .4.6c0 .3-.3.5-.8.8l-1.9.9-2 .8-1.2.4h-.2l-4.7-2.6a.3.3 0 0 1-.2-.4v-.6a29.9 29.9 0 0 1 0-3 28.1 28.1 0 0 0 .1-3 23.1 23.1 0 0 0-.3-3.7l-.6-3.7c-.2-1.2-.4-2.4-.5-3.7a23.4 23.4 0 0 1-.3-3.8c0-1.2 0-2.3.1-3.3a23.6 23.6 0 0 1 .4-2.8 25.6 25.6 0 0 1 .5-2.7c.2-1 .4-2 .6-3.2a.8.8 0 0 0 0-.7 2 2 0 0 1-.1-.7l-1.9.2-1.8.5-1.9.6-1.9.5-1.3.2-1.1.2-1-.2h-2.8a44.7 44.7 0 0 1-5.2-.1h-7.6a4 4 0 0 0-2.3.8v5.2c0 1.6-.1 3.3-.2 5s-.2 3.3-.2 5-.2 3.4-.2 5.2v5c0 .5.7 1.1 1.1 1.6a20.9 20.9 0 0 1 1.4 1.7 9.4 9.4 0 0 1 1.2 1.8 3.4 3.4 0 0 1 .5 1.7v.4a9 9 0 0 1-4 .4c.1.5 0 .7-.2.8h-2.7l-2.3-.2a6.1 6.1 0 0 1-1.8-.9 2.1 2.1 0 0 1-.7-1.8 5.7 5.7 0 0 1 .1-1.3l.3-1.3a5 5 0 0 0 .3-1.3 5.9 5.9 0 0 0 .2-1.3 23.4 23.4 0 0 0-.3-3.8c-.2-1.2-.4-2.4-.7-3.6s-.5-2.6-.8-3.7a29.6 29.6 0 0 1-.7-4h-.4c-.2 0-.4.8-.5.9l-.4.7-.3.5-1.5 2.3c-.6.7-1 1.5-1.5 2.2a12.2 12.2 0 0 0-1 2.4 8.6 8.6 0 0 0-.5 2.7 3.2 3.2 0 0 0 .4 1.6 10.1 10.1 0 0 0 .7 1.5l.7 1.1.3.6a.8.8 0 0 1-.4.7 3.1 3.1 0 0 1-1 .5l-1.3.2h-4.3a1.5 1.5 0 0 1-1-.4 2.7 2.7 0 0 1-.7-.8 9.1 9.1 0 0 1-.6-1.6 7.5 7.5 0 0 0-.5-1.6 8.8 8.8 0 0 1-.2-1.7 2.7 2.7 0 0 1 .4-1.4 12.9 12.9 0 0 1 .9-1.6 14 14 0 0 0 1-1.6 3.4 3.4 0 0 0 .8-1.4c.9-1.9 1.7-3.9 2.5-5.8l2.4-5.8a2.2 2.2 0 0 1 .5-.8l.5-.7a2.5 2.5 0 0 0 .4-.7 2.4 2.4 0 0 0 .2-.8c0-.4-.1-.6-.3-.7h-1.3l-8.9 2.4a2 2 0 0 1-1.3.6l-1.7.4-1.6.5a1.4 1.4 0 0 0-.7 1.1 1.6 1.6 0 0 0 .3.9l.6.6.9.6a1.9 1.9 0 0 1 .7.6l-.4.4-1.3-.8a10.1 10.1 0 0 0-1.3-.9l-1.5-.6-1.5-.2a17.3 17.3 0 0 0-3.8.5l-3.9 1.1-4 1.2a20.1 20.1 0 0 1-4.2.5l-3.4-.4-4.8-1.1-5.4-1.8a31.5 31.5 0 0 1-4.9-2.2 15.2 15.2 0 0 1-3.6-2.6 4.3 4.3 0 0 1-1.5-3 4.6 4.6 0 0 1 1.1-3.2 6.1 6.1 0 0 1 2.8-1.6 18.3 18.3 0 0 1 3.4-.2c1.2 0 2.3.4 3.3.4h3.9c.2 0 .6-.4 1.3-.3a21.5 21.5 0 0 1 2.3.2 19 19 0 0 1 2.5.3l2 .2a7 7 0 0 1 1.9.6l1.8.8 1.8.8a5.8 5.8 0 0 0 1.9.3 8.9 8.9 0 0 0 4-1.1 29.2 29.2 0 0 0 4-2.5 40.8 40.8 0 0 0 3.9-3.1l3.2-2.7 1.8-1.2a11.8 11.8 0 0 0 1.9-1.1 8.8 8.8 0 0 0 1.7-1.2 12.9 12.9 0 0 0 1.5-1.7 38.3 38.3 0 0 0 2.5-4.4 32.3 32.3 0 0 1 2.7-4.4 8 8 0 0 1 1.3-1.3l1.5-1 1.6-.9a5.1 5.1 0 0 0 1.6-.9 40.6 40.6 0 0 0 3.6-2.6l3.4-2.8 3.3-3 3.4-2.8a20 20 0 0 1 3.7-2.2l3.9-1.8 2.5-1.3 2.4-1.3 2.6-1.1a11.2 11.2 0 0 1 2.6-.8l22.1-3.2a11.8 11.8 0 0 0 3.5-1.1 21 21 0 0 0 3.3-2.2 27 27 0 0 0 3.1-2.8c1-1.1 2-2.1 2.9-3.2l2.6-3.2 2.3-2.8 7.7-8.8q0-.1.3-.3l.5-.5.5-.6.3-.2 2-3.3h.2l.4-.2.4-.3c.1-.1.2-.1.2-.2l.4-.4.4-.4a11.1 11.1 0 0 0 1.2-1.6l1.4-2 1.3-1.9a14.7 14.7 0 0 0 .9-1.7 17.6 17.6 0 0 0 .9-2 17.2 17.2 0 0 1 .7-2.1 18.7 18.7 0 0 1 .7-2.2c.3-.7 1-1.4 1-2.2v-6a5 5 0 0 0-1.1-3 9.2 9.2 0 0 0-2.6-2.6 10.6 10.6 0 0 0-3.3-1.8 10.3 10.3 0 0 0-3.2-.7 26.2 26.2 0 0 0-5.7.7 12.4 12.4 0 0 0-5.1 2.6 18.4 18.4 0 0 0-1.4 1.4l-1.6 1.9-1.7 1.9-1.8 1.8-1.8 1.3a4.1 4.1 0 0 1-1.8.5 1.7 1.7 0 0 1-1.6-1.6v-.4a1.1 1.1 0 0 1 .1-.5c0-.3.1-.5.1-.8a6.4 6.4 0 0 1 .2-.7v-.5a4.7 4.7 0 0 0-.2-1.7l-.6-1.3-.6-1.2a5 5 0 0 1-.2-1.2c.4 0 .7-.1.8-.3s.3-.3.5-.6a2.5 2.5 0 0 1 .4-.7 1.2 1.2 0 0 1 .8-.6h2.8a1.2 1.2 0 0 0 .9-.3 2.3 2.3 0 0 1 .7-.7h.4c.1 0 .1.1.2.3l.2.4c0-.2.2-.3.4-.3l.6-.4 1.1-.6 1.4-.8 1.3-.8 1.1-.7a1.1 1.1 0 0 0 .5-.4l2.1-1.2a6.4 6.4 0 0 1 1.8-.6 5.5 5.5 0 0 1 1.9-.2h6.3a4.4 4.4 0 0 0 1.5.5l1.5.4a4 4 0 0 1 1.5.3 3.3 3.3 0 0 1 1.5.5 14.4 14.4 0 0 1 4.6 2.9 20.7 20.7 0 0 1 3.1 4.2 19.6 19.6 0 0 1 1.7 5 23.6 23.6 0 0 1 .5 5.4v2.2z"/></symbol><symbol id="velociraptor" viewBox="0 0 256 256"><path d="M127.5 2A126.5 126.5 0 1 0 254 128.5 126.5 126.5 0 0 0 127.5 2zm109.4 115.4h-7.3a90.8 90.8 0 0 1-9.1-.5l-9.1-.9-9-1c-3-.3-6.1-.4-9.2-.4a128.1 128.1 0 0 0-16.2 1 70.2 70.2 0 0 0-15.7 3.6l-30.4 11a2.4 2.4 0 0 0-1.2 1.6 17.3 17.3 0 0 0-.8 2.7l-.6 2.8a9.8 9.8 0 0 1-.6 2 3.2 3.2 0 0 0 1.3 1.3 11.7 11.7 0 0 0 2.5 1.1l2.8 1.2 2.8 1.4a12.9 12.9 0 0 1 2.1 1.9 4.1 4.1 0 0 1 .8 2.5 1.8 1.8 0 0 1-.5 1.2 3.6 3.6 0 0 1-1.2.8l-1.6.8a8 8 0 0 0-1.6.8 2.9 2.9 0 0 0-1.2 1 2 2 0 0 0-.5 1.5 3.3 3.3 0 0 0 .8 2.5 7.7 7.7 0 0 0 1.9 1.6l2.3 1.3a7.6 7.6 0 0 1 2.2 1.7 17.5 17.5 0 0 1 2 3.5 26 26 0 0 1 1.3 3.6 25.3 25.3 0 0 1 .7 3.8c.2 1.3.1 2.7.3 4l1.3 1.3v7.1h.9l1 .2.9.2.6.2a4.4 4.4 0 0 1 .1.9c0 .2-.1.5-.1.9a6.5 6.5 0 0 1-.4 1.3c-.1.4-.4.6-.6.9a1 1 0 0 1-.9.3h-5.1c-.2 0-.6-.5-1-.8l-1.5-.9-1.6-.7c-.5-.4-.9-.9-1.1-.9h-6.1a4.8 4.8 0 0 1 .6-2.9 4.9 4.9 0 0 1 1.6-1.6l2.1-.6 2.2-.4a4.4 4.4 0 0 0 1.6-.6 1.4 1.4 0 0 0 .6-1.3v-.7l-.9-1.7-1.2-2.4a21.3 21.3 0 0 0-1.6-2.5 7.1 7.1 0 0 0-1.5-1.8l-1.3-.8-1.9-.9-1.7-1.1a2.6 2.6 0 0 1-1-1.1c-.3-.8-.6-1.8-.9-2.9a17.3 17.3 0 0 0-1.1-3.2 7.8 7.8 0 0 0-1.7-2.6 3.7 3.7 0 0 0-2.8-1 23.5 23.5 0 0 0-6 .8 28 28 0 0 0-5.7 2.2 24.9 24.9 0 0 0-5 3.5 21.1 21.1 0 0 0-3.9 4.5l-.4.2h-.1c-.1-.1-.1-.1-.1-.2s-.2-.1-.2-.3-.1-.4-.2-.6a6.4 6.4 0 0 0-.2-.7v-.3h-.3a1.6 1.6 0 0 0-1.1.5 6.2 6.2 0 0 0-.8 1.2l-.9 1.3a2.7 2.7 0 0 1-.8 1 3.5 3.5 0 0 1-.6-1.6 8.6 8.6 0 0 1-.1-1.7 9.2 9.2 0 0 1 .4-2.9 18 18 0 0 1 .9-2.8c.3-.9.6-1.5.9-2.5s.4-2.7.4-2.7h-5c0-1.7.2-1.8.7-2.4a4.9 4.9 0 0 1 1.6-1.6 6.7 6.7 0 0 1 2.1-.9l2.1-.3 3 .2 2.9.5 2.9.4a14.2 14.2 0 0 0 2.9.2h2.3a2.7 2.7 0 0 0-1.7-1.4l-2.5-.4-2.7-.2c-.9-.1-1.6.1-2.2-.2l-3.8-2.2h-.3a11.4 11.4 0 0 0-3.2 0 15.8 15.8 0 0 1-3.1.1 7.3 7.3 0 0 1-3-.7l-2.6-1.4-2.6-1.4a5.2 5.2 0 0 0-2.9-.6v6h1.6l1-.3.9-.6c.3-.2.3-.4.8-.6l.7-.2v2.8l1.9-.7.3.5a4.3 4.3 0 0 0 .1.5 5.6 5.6 0 0 1-1.3 3.9 24.4 24.4 0 0 1-3.3 2.9 19.1 19.1 0 0 0-4.5-1.3l-4.8-.6v-7.8c0 .1-1 .2-1.7.5l-2.1 1-1.9 1.2c-.4.4-.9.8-.9 1.2v6.8a17 17 0 0 0 3-.2l1.8-.6 1.2-.6 1.2-.3h.4l.3.7c.1.4.3.8.4 1.2a9.3 9.3 0 0 1 .4 1.3 4.4 4.4 0 0 1 .2 1 7.2 7.2 0 0 1-.4 1.9 8.7 8.7 0 0 1-1.1 1.8 4.7 4.7 0 0 1-1.5 1.3 3.2 3.2 0 0 1-1.9.5h-1l-2.9-.5a15.1 15.1 0 0 1-3.7-.7 13.3 13.3 0 0 1-3.2-1.2 2.4 2.4 0 0 1-1.4-2.1v-11.7c0-.1.3-.4.8-.8l1.9-1.6 2.4-2.2a27.3 27.3 0 0 0 2.3-2.5 14.1 14.1 0 0 0 1.8-2.7 5.2 5.2 0 0 0 .8-2.5 3.8 3.8 0 0 0-1.2-2.8 11.8 11.8 0 0 0-2.8-2 22.2 22.2 0 0 0-3.2-1.4l-2.5-.9-1.3-9.1q-.3-1.2-.6-2.7a13.1 13.1 0 0 0-1.2-2.7 5.8 5.8 0 0 0-1.7-2.1 4 4 0 0 0-2.7-.9 12 12 0 0 0-6.8 2l-1.6 1-2.5 1.5-3 1.7-2.9 1.7c-1 .6-1.8 1.3-2.6 1.7s-1.3 1.1-1.6 1.1h-1l-1.7-.2-2.1-.4c-.7-.1-.9-.4-1.4-.8s-.3-.8-.3-1.3v-1.9c0-.6-.2-.9.1-.9H29v-.5c.1-.2.1-.5.2-.8s.1-.6.1-.8a1.3 1.3 0 0 0 .1-.5c-.3-.4-.5-.7-.8-.8l-.9-.5-.7-.7a1.9 1.9 0 0 1-.3-1.2 2.7 2.7 0 0 1 .3-1.2 6.7 6.7 0 0 1 .6-1.2c.3-.3.3-.6.6-.8l.9-.4v.8c0 .5.4 1 .5 1.5a1.2 1.2 0 0 0 1.2.7 1.4 1.4 0 0 0 1.1-.5l1-1.1c.2-.4.4-1.2.6-1.6s.2.3.2-1.4H21.6a2.1 2.1 0 0 1-.9-.5l-1-.6a3.6 3.6 0 0 1-.9-.8 1.4 1.4 0 0 1-.4-1.1 4.5 4.5 0 0 1 1-3.1 7.6 7.6 0 0 1 2.6-1.8 17 17 0 0 1 3.2-1l2.8-.8 2.2-1 3.4-1.5 3.3-1.6a8.9 8.9 0 0 1 2.2-1h13.5a8.6 8.6 0 0 1 3.9.9 14.8 14.8 0 0 1 3.1 2.5l2.5 3.3c.8 1.2 1.5 2.3 2.3 3.3a19.9 19.9 0 0 0 2.2 2.6 4.2 4.2 0 0 0 2.5 1 1 1 0 0 0 .8-.4c.1-.3.4-.4.8-.4a4 4 0 0 1 1.5.3l1.6.7 1.5.7a4 4 0 0 0 1.5.3l4.1-.2 4.1-.4 4.1-.5a27.3 27.3 0 0 1 4.1-.3c2.5 0 4.9.2 7.2.4a37.2 37.2 0 0 1 7.2 1.6 52.1 52.1 0 0 1 5 2l5.1 2.2 5.2 1.7a20 20 0 0 0 5.4.7h2.6l12.8-2.7c4.3-.9 8.5-1.6 12.8-2.3s8.5-1.1 12.8-1.5 8.7-.6 13.1-.6h8.8c1.8.1 3.5.7 5 .9l36.2 7.3h11.7c-.8 0-1.9 1-3.2 1.3a13.3 13.3 0 0 1-4 .2z"/></symbol></svg>